<?xml version="1.0" encoding="utf-8"?>
<!-- Generator: Adobe Illustrator 24.0.1, SVG Export Plug-In . SVG Version: 6.00 Build 0)  -->
<svg version="1.1" id="Layer_1" xmlns="http://www.w3.org/2000/svg" xmlns:xlink="http://www.w3.org/1999/xlink" x="0px" y="0px"
	 viewBox="0 0 1920 1080" style="enable-background:new 0 0 1920 1080;" xml:space="preserve">
<style type="text/css">
	.st0{opacity:0.35;fill-rule:evenodd;clip-rule:evenodd;fill:url(#SVGID_1_);}
	.st1{opacity:0.35;fill-rule:evenodd;clip-rule:evenodd;fill:url(#SVGID_2_);}
	.st2{opacity:0.35;fill-rule:evenodd;clip-rule:evenodd;fill:url(#SVGID_3_);}
	.st3{opacity:0.35;fill-rule:evenodd;clip-rule:evenodd;fill:url(#SVGID_4_);}
	.st4{opacity:0.35;fill-rule:evenodd;clip-rule:evenodd;fill:url(#SVGID_5_);}
	.st5{opacity:0.35;fill-rule:evenodd;clip-rule:evenodd;fill:url(#SVGID_6_);}
	.st6{opacity:0.35;fill-rule:evenodd;clip-rule:evenodd;fill:url(#SVGID_7_);}
	.st7{opacity:0.35;fill-rule:evenodd;clip-rule:evenodd;fill:url(#SVGID_8_);}
	.st8{opacity:0.35;fill-rule:evenodd;clip-rule:evenodd;fill:url(#SVGID_9_);}
</style>
<linearGradient id="SVGID_1_" gradientUnits="userSpaceOnUse" x1="191.4998" y1="628.1011" x2="1019.5" y2="628.1011">
	<stop  offset="0" style="stop-color:#FFFFFF"/>
	<stop  offset="1" style="stop-color:#FFFFFF;stop-opacity:0"/>
</linearGradient>
<path class="st0" d="M215.5,548c-24.3,13.1-24,36-24,54s6,127,31,142s74,24,137,10s267.6-94.4,348.8-106.7s152.6-17.3,197.9-15.8
	s113.3,0.5,113.3,0.5l-36-122c0,0-250-27-430-8S267.5,520,215.5,548z"/>
<linearGradient id="SVGID_2_" gradientUnits="userSpaceOnUse" x1="471.4998" y1="698.1011" x2="1299.5" y2="698.1011">
	<stop  offset="0" style="stop-color:#FFFFFF"/>
	<stop  offset="1" style="stop-color:#FFFFFF;stop-opacity:0"/>
</linearGradient>
<path class="st1" d="M495.5,618c-24.3,13.1-24,36-24,54s6,127,31,142s74,24,137,10s267.6-94.4,348.8-106.7s152.6-17.3,197.9-15.8
	s113.3,0.5,113.3,0.5l-36-122c0,0-250-27-430-8S547.5,590,495.5,618z"/>
<linearGradient id="SVGID_3_" gradientUnits="userSpaceOnUse" x1="29.0586" y1="710.0074" x2="1039.5756" y2="710.0074">
	<stop  offset="0" style="stop-color:#FFFFFF"/>
	<stop  offset="1" style="stop-color:#FFFFFF;stop-opacity:0"/>
</linearGradient>
<path class="st2" d="M76.2,570.7c-32.2,6.8-36.5,29.3-40.1,46.9S18,743.6,45.5,764.5c27.5,20.9,85.4,41.9,165,43.9
	c79.6,2,345.1-25.8,446.6-17.6s189.5,21.1,244.4,33.8c54.9,12.8,138,28.7,138,28.7l-19.5-128.5c0,0-299.4-88.7-522.6-115
	C274.2,583.6,145.2,556.2,76.2,570.7z"/>
<linearGradient id="SVGID_4_" gradientUnits="userSpaceOnUse" x1="438.0859" y1="681.2839" x2="1490.5859" y2="681.2839" gradientTransform="matrix(0.995 -9.963266e-02 9.963266e-02 0.995 -67.1659 81.2866)">
	<stop  offset="0" style="stop-color:#FFFFFF;stop-opacity:0"/>
	<stop  offset="1" style="stop-color:#FFFFFF"/>
</linearGradient>
<path class="st3" d="M1445.5,534c32,9.9,33.9,32.8,35.7,50.7c1.8,17.9,5.1,127.1-25.1,145.2c-30.1,18.1-91.2,33.3-172.3,27.3
	s-347.9-60-451.8-62c-103.9-2-194.7,2.1-251.9,9.3c-57.1,7.2-143.3,14.8-143.3,14.8l33.4-126c0,0,313.5-58.5,543.1-62.4
	S1377,512.7,1445.5,534z"/>
<linearGradient id="SVGID_5_" gradientUnits="userSpaceOnUse" x1="8.4998" y1="796.1011" x2="836.5" y2="796.1011">
	<stop  offset="0" style="stop-color:#FFFFFF"/>
	<stop  offset="1" style="stop-color:#FFFFFF;stop-opacity:0"/>
</linearGradient>
<path class="st4" d="M32.5,716c-24.3,13.1-24,36-24,54s6,127,31,142s74,24,137,10s267.6-94.4,348.8-106.7s152.6-17.3,197.9-15.8
	s113.3,0.5,113.3,0.5l-36-122c0,0-250-27-430-8S84.5,688,32.5,716z"/>
<linearGradient id="SVGID_6_" gradientUnits="userSpaceOnUse" x1="199.4998" y1="852.1011" x2="1027.5" y2="852.1011">
	<stop  offset="0" style="stop-color:#FFFFFF"/>
	<stop  offset="1" style="stop-color:#FFFFFF;stop-opacity:0"/>
</linearGradient>
<path class="st5" d="M223.5,772c-24.3,13.1-24,36-24,54s6,127,31,142s74,24,137,10s267.6-94.4,348.8-106.7s152.6-17.3,197.9-15.8
	s113.3,0.5,113.3,0.5l-36-122c0,0-250-27-430-8S275.5,744,223.5,772z"/>
<linearGradient id="SVGID_7_" gradientUnits="userSpaceOnUse" x1="1072.3705" y1="686.0662" x2="1893.1876" y2="686.0662">
	<stop  offset="0" style="stop-color:#FFFFFF;stop-opacity:0"/>
	<stop  offset="1" style="stop-color:#FFFFFF"/>
</linearGradient>
<path class="st6" d="M1859.6,579.9c25.7,9.9,28.3,32.7,30.6,50.6c2.2,17.9,9.9,126.8-13,144.8c-22.9,18-70.4,33.1-134.7,27
	c-64.3-6-277.3-60.3-359.4-62.3s-153.6,1.9-198.3,9c-44.8,7.1-112.4,14.6-112.4,14.6l20.5-125.5c0,0,244.7-58,425.6-61.6
	S1804.5,558.6,1859.6,579.9z"/>
<linearGradient id="SVGID_8_" gradientUnits="userSpaceOnUse" x1="805.6443" y1="736.1011" x2="1633.6444" y2="736.1011">
	<stop  offset="0" style="stop-color:#FFFFFF;stop-opacity:0"/>
	<stop  offset="1" style="stop-color:#FFFFFF"/>
</linearGradient>
<path class="st7" d="M1609.6,656c24.3,13.1,24,36,24,54s-6,127-31,142s-74,24-137,10s-267.6-94.4-348.8-106.7
	c-81.2-12.3-152.6-17.3-197.9-15.8S805.6,740,805.6,740l36-122c0,0,250-27,430-8S1557.6,628,1609.6,656z"/>
<linearGradient id="SVGID_9_" gradientUnits="userSpaceOnUse" x1="959.6443" y1="810.1011" x2="1910" y2="810.1011">
	<stop  offset="0" style="stop-color:#FFFFFF;stop-opacity:0"/>
	<stop  offset="1" style="stop-color:#FFFFFF"/>
</linearGradient>
<path class="st8" d="M1882.5,730c27.9,13.1,27.5,36,27.5,54s-6.9,127-35.6,142s-84.9,24-157.2,10c-72.3-14-307.1-94.4-400.3-106.7
	s-175.2-17.3-227.1-15.8s-130,0.5-130,0.5l41.3-122c0,0,286.9-27,493.5-8S1822.8,702,1882.5,730z"/>
</svg>
