<svg xmlns="http://www.w3.org/2000/svg" viewBox="0 0 62 62" height="62" width="62">
    <defs>
        <style>
        .cls-1{fill:none;}
        .cls-2{fill:#454545;}
        .cls-3{fill:#FFF;}
        </style>
    </defs>
    <title>aba-logo</title>
    <g id="bounding_box" data-name="bounding box">
        <rect class="cls-1" width="108" height="108" />
    </g>
    <g id="ABA_Outline" data-name="ABA Outline" transform="translate(-19 -23)">
        <circle class="cls-2" cx="49.74" cy="55.42" r="28.74" />
        <path class="cls-3" d="M36.74,68.22c-2.19-1.78-4.28-2.82-7.34-1.95a7.32,7.32,0,0,0,3.14,4.14,20.24,20.24,0,0,0,7.95,2.78S39.95,70.82,36.74,68.22Z" />
        <path class="cls-3" d="M57.74,52.26c-6.17,1.88-9,5.49-11.92,9.78,2.18.51,10.63.69,14.11-.31,8.31-2.39,13.58-10.63,13.58-10.63S65.05,50,57.74,52.26Z" />
        <path class="cls-3" d="M47.29,63.89c-4.77-1.14-7.34.5-10.29,2.65a39.83,39.83,0,0,0,8.93,3.74c5.66,1.35,12.53-.76,12.53-.76S52.95,65.24,47.29,63.89Z" />
        <path class="cls-3" d="M63.49,40.67c-2,6.55-7.08,9-11.35,11.27.09-3.53.2-9.66,1.3-13.34,2.33-7.76,9.84-14.76,9.84-14.76S65.83,32.92,63.49,40.67Z" />
        <path class="cls-3" d="M49,52.39c-.77,4.34-3.7,6.36-5.69,8.16a41.85,41.85,0,0,1,.31-9.11c.92-5.15,4.92-10.19,4.92-10.19A32.43,32.43,0,0,1,49,52.39Z" />
        <path class="cls-3" d="M40.94,59.53c-.61,3.23-2.52,4.15-4.49,5.36a28.92,28.92,0,0,1,.27-6.48A19.63,19.63,0,0,1,40.42,51,22.92,22.92,0,0,1,40.94,59.53Z" />
    </g>
</svg>